<svg width="256" height="256" viewBox="0 0 256 256" fill="none" xmlns="http://www.w3.org/2000/svg">
<path d="M224 99.9956C224 89.4415 218.174 80.2525 209.574 75.4918H209.923C209.784 75.4918 209.644 75.4743 209.504 75.4568C208.824 75.0892 208.126 74.7567 207.429 74.4416C206.818 73.8115 206.434 72.9539 206.434 72.0088C206.434 71.0636 206.801 70.2235 207.411 69.5934C208.126 69.2783 208.842 68.9283 209.522 68.5432C209.661 68.5432 209.784 68.5082 209.923 68.5082H209.592C218.174 63.73 223.983 54.5585 223.983 44.0044C223.983 28.532 211.493 16 196.073 16C196.038 16 196.003 16 195.951 16L168.164 43.8819L115.711 96.5126C94.5522 96.5126 77.3355 111.145 77.3355 129.138V215.566C74.4225 213.361 70.7942 212.031 66.8694 212.031C62.9447 212.031 59.8921 208.898 59.8921 205.03V135.001C59.9095 119.529 47.42 106.997 32 106.997V191.01C32 206.482 44.4895 219.014 59.9095 219.014H66.8869C72.6607 219.014 77.353 223.722 77.353 229.516V240H84.3303V231.249C84.3303 225.455 89.0226 220.747 94.7964 220.747H101.774C117.194 220.747 129.683 208.215 129.683 192.743V150.736C114.263 150.736 101.774 163.268 101.774 178.74V206.745C101.774 210.613 98.6514 213.746 94.7964 213.746C90.9414 213.746 87.2434 215.076 84.3303 217.281V129.103C84.3303 114.978 98.4246 103.479 115.729 103.479L168.181 156.109L195.968 183.991C196.003 183.991 196.038 183.991 196.09 183.991C211.51 183.991 224 171.459 224 155.987C224 145.433 218.174 136.261 209.592 131.483H209.923C209.784 131.483 209.644 131.466 209.522 131.448C208.842 131.08 208.144 130.73 207.429 130.415C206.818 129.785 206.452 128.928 206.452 127.983C206.452 127.037 206.836 126.18 207.429 125.55C208.144 125.235 208.842 124.902 209.522 124.517C209.661 124.517 209.784 124.482 209.923 124.482H209.592C218.174 119.704 224 110.532 224 99.9781V99.9956Z" fill="#F25B27"/>
</svg>
